<?xml version="1.0" encoding="UTF-8" standalone="no"?>
<!-- Created with Inkscape (http://www.inkscape.org/) -->

<svg
   width="0.69999999cm"
   height="1.4cm"
   viewBox="0 0 6.9999998 14"
   version="1.1"
   id="svg5"
   sodipodi:docname="tenseur_0.svg"
   inkscape:version="1.2 (dc2aedaf03, 2022-05-15)"
   xmlns:inkscape="http://www.inkscape.org/namespaces/inkscape"
   xmlns:sodipodi="http://sodipodi.sourceforge.net/DTD/sodipodi-0.dtd"
   xmlns="http://www.w3.org/2000/svg"
   xmlns:svg="http://www.w3.org/2000/svg"
   xmlns:ns1="http://www.iki.fi/pav/software/textext/">
  <sodipodi:namedview
     id="namedview7"
     pagecolor="#ffffff"
     bordercolor="#000000"
     borderopacity="0.25"
     inkscape:showpageshadow="2"
     inkscape:pageopacity="0.0"
     inkscape:pagecheckerboard="0"
     inkscape:deskcolor="#d1d1d1"
     inkscape:document-units="mm"
     showgrid="true"
     inkscape:zoom="8"
     inkscape:cx="55.0625"
     inkscape:cy="45.9375"
     inkscape:window-width="2528"
     inkscape:window-height="1378"
     inkscape:window-x="0"
     inkscape:window-y="0"
     inkscape:window-maximized="1"
     inkscape:current-layer="layer1">
    <inkscape:grid
       type="xygrid"
       id="grid132"
       originx="0"
       originy="0"
       units="mm"
       spacingx="0.49999999"
       spacingy="0.49999999"
       empspacing="6" />
  </sodipodi:namedview>
  <defs
     id="defs2">
    <defs
       id="id-7451d6c7-ada0-44c7-92cf-72e36805d024">
      <g
         id="id-28d279d8-0e37-4fe8-927b-034c8cf3b13d">
        <g
           id="id-f19aff50-962d-458d-b17e-6e2e586c78d2" />
        <g
           id="id-19b64422-cd63-4ae5-975c-b5e1847d0bb0">
          <path
             d="m 1.859375,-2.296875 c 0.296875,0 1.03125,-0.03125 1.53125,-0.234375 0.703125,-0.296875 0.75,-0.890625 0.75,-1.03125 0,-0.4375 -0.375,-0.84375 -1.0625,-0.84375 -1.109375,0 -2.625,0.96875 -2.625,2.71875 0,1.015625 0.59375,1.796875 1.578125,1.796875 1.421875,0 2.25,-1.0625 2.25,-1.171875 0,-0.0625 -0.046875,-0.140625 -0.109375,-0.140625 -0.0625,0 -0.078125,0.03125 -0.140625,0.109375 -0.78125,0.984375 -1.875,0.984375 -1.984375,0.984375 -0.78125,0 -0.875,-0.84375 -0.875,-1.15625 0,-0.125 0.015625,-0.421875 0.15625,-1.03125 z m -0.46875,-0.21875 C 1.78125,-4.03125 2.8125,-4.1875 3.078125,-4.1875 c 0.453125,0 0.734375,0.296875 0.734375,0.625 0,1.046875 -1.59375,1.046875 -2.015625,1.046875 z m 0,0"
             id="id-f7d8f93d-c9f4-4995-9d26-ba5756c2be92" />
        </g>
      </g>
    </defs>
    <defs
       id="id-d25c7a89-f382-46d5-8e13-0dccf3b82f9b">
      <g
         id="id-62fb2d4c-7600-405b-bc0f-04ec462aee6a">
        <g
           id="id-84efc5db-504e-49ce-94a7-3bec161261a3" />
        <g
           id="id-ed07626f-d5b2-43aa-9a77-500af01b35d1">
          <path
             d="m 2.9375,-6.375 c 0,-0.25 0,-0.265625 -0.234375,-0.265625 C 2.078125,-6 1.203125,-6 0.890625,-6 v 0.3125 c 0.203125,0 0.78125,0 1.296875,-0.265625 v 5.171875 c 0,0.359375 -0.03125,0.46875 -0.921875,0.46875 h -0.3125 V 0 c 0.34375,-0.03125 1.203125,-0.03125 1.609375,-0.03125 0.390625,0 1.265625,0 1.609375,0.03125 v -0.3125 h -0.3125 c -0.90625,0 -0.921875,-0.109375 -0.921875,-0.46875 z m 0,0"
             id="id-5149f503-8725-4499-8b8c-0670b0c3211f" />
        </g>
      </g>
    </defs>
  </defs>
  <g
     inkscape:label="Layer 1"
     inkscape:groupmode="layer"
     id="layer1">
    <path
       style="fill:#dbe2e3;stroke:#000000;stroke-width:0.3;stroke-dasharray:none"
       d="M 3.5000003,0.925 V 6.9249998"
       id="path404" />
    <circle
       style="fill:#dbe2e3;stroke:#000000;stroke-width:0.3;stroke-dasharray:none"
       id="path2450"
       cx="3.5"
       cy="9.9250002"
       r="2.9999998" />
    <g
       fill="#000000"
       fill-opacity="1"
       id="id-6535ff70-2cbf-425a-a06c-f2fa6558b79c"
       transform="matrix(0.352778,0,0,0.352778,-49.855427,-36.445728)">
      <g
         transform="translate(148.712,134.765)"
         id="g3947" />
    </g>
    <g
       transform="matrix(0.352778,0,0,0.352778,2.7615033,8.7149496)"
       ns1:version="1.8.1"
       ns1:texconverter="pdflatex"
       ns1:pdfconverter="inkscape"
       ns1:text="$0$"
       ns1:preamble="/usr/share/inkscape/extensions/textext/default_packages.tex"
       ns1:scale="1.0"
       ns1:alignment="middle center"
       ns1:stroke-to-path="0"
       ns1:inkscapeversion="1.2"
       ns1:jacobian_sqrt="0.352778"
       id="g5225">
      <defs
         id="id-4d365f34-c71b-4bc3-a3d3-3889af41d327">
        <g
           id="id-357fc536-9cf4-4de7-9e16-4a7c4bc449b1">
          <g
             id="id-e76c073d-6a47-45da-aa5e-bce8ca4e42dd" />
          <g
             id="id-243349d7-953c-4c5e-b01a-efa5ec60e105">
            <path
               d="m 4.578125,-3.1875 c 0,-0.796875 -0.046875,-1.59375 -0.390625,-2.328125 -0.453125,-0.96875 -1.28125,-1.125 -1.6875,-1.125 -0.609375,0 -1.328125,0.265625 -1.75,1.1875 -0.3125,0.6875 -0.359375,1.46875 -0.359375,2.265625 0,0.75 0.03125,1.640625 0.453125,2.40625 0.421875,0.796875 1.15625,1 1.640625,1 0.53125,0 1.296875,-0.203125 1.734375,-1.15625 0.3125,-0.6875 0.359375,-1.46875 0.359375,-2.25 z M 2.484375,0 C 2.09375,0 1.5,-0.25 1.328125,-1.203125 1.21875,-1.796875 1.21875,-2.71875 1.21875,-3.3125 c 0,-0.640625 0,-1.296875 0.078125,-1.828125 0.1875,-1.1875 0.9375,-1.28125 1.1875,-1.28125 0.328125,0 0.984375,0.1875 1.171875,1.171875 0.109375,0.5625 0.109375,1.3125 0.109375,1.9375 0,0.75 0,1.421875 -0.109375,2.0625 C 3.5,-0.296875 2.9375,0 2.484375,0 Z m 0,0"
               id="id-467a10ec-51b4-44f5-9a17-6a0ee596357d" />
          </g>
        </g>
      </defs>
      <g
         fill="#000000"
         fill-opacity="1"
         id="id-3e1657f2-cf3c-4a4b-97c2-7da029b0f116"
         transform="translate(-149.103,-128.124)">
        <g
           transform="translate(148.712,134.765)"
           id="g5222">
          <path
             d="m 4.578125,-3.1875 c 0,-0.796875 -0.046875,-1.59375 -0.390625,-2.328125 -0.453125,-0.96875 -1.28125,-1.125 -1.6875,-1.125 -0.609375,0 -1.328125,0.265625 -1.75,1.1875 -0.3125,0.6875 -0.359375,1.46875 -0.359375,2.265625 0,0.75 0.03125,1.640625 0.453125,2.40625 0.421875,0.796875 1.15625,1 1.640625,1 0.53125,0 1.296875,-0.203125 1.734375,-1.15625 0.3125,-0.6875 0.359375,-1.46875 0.359375,-2.25 z M 2.484375,0 C 2.09375,0 1.5,-0.25 1.328125,-1.203125 1.21875,-1.796875 1.21875,-2.71875 1.21875,-3.3125 c 0,-0.640625 0,-1.296875 0.078125,-1.828125 0.1875,-1.1875 0.9375,-1.28125 1.1875,-1.28125 0.328125,0 0.984375,0.1875 1.171875,1.171875 0.109375,0.5625 0.109375,1.3125 0.109375,1.9375 0,0.75 0,1.421875 -0.109375,2.0625 C 3.5,-0.296875 2.9375,0 2.484375,0 Z m 0,0"
             id="id-87214d18-3da9-42a4-a431-d3d8a2044278" />
        </g>
      </g>
    </g>
  </g>
</svg>
