<?xml version="1.0" encoding="UTF-8" standalone="no"?>
<!-- Created with Inkscape (http://www.inkscape.org/) -->

<svg
   version="1.1"
   id="svg9327"
   width="26.456692"
   height="52.913383"
   viewBox="0 0 26.456692 52.913383"
   sodipodi:docname="tenseur_1.svg"
   inkscape:version="1.2 (dc2aedaf03, 2022-05-15)"
   xmlns:inkscape="http://www.inkscape.org/namespaces/inkscape"
   xmlns:sodipodi="http://sodipodi.sourceforge.net/DTD/sodipodi-0.dtd"
   xmlns="http://www.w3.org/2000/svg"
   xmlns:svg="http://www.w3.org/2000/svg">
  <defs
     id="defs9331" />
  <sodipodi:namedview
     id="namedview9329"
     pagecolor="#ffffff"
     bordercolor="#000000"
     borderopacity="0.25"
     inkscape:showpageshadow="2"
     inkscape:pageopacity="0.0"
     inkscape:pagecheckerboard="0"
     inkscape:deskcolor="#d1d1d1"
     showgrid="true"
     inkscape:zoom="19.900447"
     inkscape:cx="13.291159"
     inkscape:cy="26.506942"
     inkscape:window-width="1256"
     inkscape:window-height="1378"
     inkscape:window-x="0"
     inkscape:window-y="0"
     inkscape:window-maximized="1"
     inkscape:current-layer="g9335">
    <inkscape:page
       x="0"
       y="0"
       id="page9333"
       width="26.456692"
       height="52.913383" />
    <inkscape:grid
       type="xygrid"
       id="grid9466" />
  </sodipodi:namedview>
  <g
     id="g9335"
     inkscape:groupmode="layer"
     inkscape:label="Page 1"
     transform="scale(1.3333333)">
    <g
       id="g9337">
      <g
         id="g9339">
        <path
           d="M 9.922,2.621 V 19.629"
           style="fill:none;stroke:#000000;stroke-width:0.850394;stroke-linecap:butt;stroke-linejoin:miter;stroke-miterlimit:4;stroke-dasharray:none;stroke-opacity:1"
           id="path9341" />
      </g>
      <g
         id="g9343">
        <path
           d="m 18.426,28.133 c 0,4.699 -3.809,8.504 -8.504,8.504 -4.695,0 -8.504,-3.805 -8.504,-8.504 0,-4.695 3.809,-8.504 8.504,-8.504 4.695,0 8.504,3.809 8.504,8.504 z"
           style="fill:#dbe2e3;fill-opacity:1;fill-rule:nonzero;stroke:#000000;stroke-width:0.850394;stroke-linecap:butt;stroke-linejoin:miter;stroke-miterlimit:4;stroke-dasharray:none;stroke-opacity:1"
           id="path9345" />
      </g>
      <path
         d="m 10.328,25.078 c 0,-0.25 0,-0.266 -0.234,-0.266 -0.625,0.641 -1.5,0.641 -1.813,0.641 v 0.313 c 0.203,0 0.781,0 1.297,-0.266 v 5.172 c 0,0.359 -0.031,0.469 -0.922,0.469 H 8.344 v 0.312 c 0.344,-0.031 1.203,-0.031 1.609,-0.031 0.391,0 1.266,0 1.609,0.031 V 31.141 H 11.25 c -0.906,0 -0.922,-0.11 -0.922,-0.469 z"
         style="fill:#000000;fill-opacity:1;fill-rule:nonzero;stroke:none"
         id="path9347" />
    </g>
  </g>
</svg>
