<?xml version="1.0" encoding="UTF-8" standalone="no"?>
<!-- Created with Inkscape (http://www.inkscape.org/) -->

<svg
   version="1.1"
   id="svg2"
   xml:space="preserve"
   width="56.692913"
   height="60.472443"
   viewBox="0 0 56.692913 60.472443"
   sodipodi:docname="tenseur_cnot.pdf"
   inkscape:version="1.1.2 (0a00cf5339, 2022-02-04)"
   xmlns:inkscape="http://www.inkscape.org/namespaces/inkscape"
   xmlns:sodipodi="http://sodipodi.sourceforge.net/DTD/sodipodi-0.dtd"
   xmlns="http://www.w3.org/2000/svg"
   xmlns:svg="http://www.w3.org/2000/svg"><defs
     id="defs6" /><sodipodi:namedview
     id="namedview4"
     pagecolor="#ffffff"
     bordercolor="#666666"
     borderopacity="1.0"
     inkscape:pageshadow="2"
     inkscape:pageopacity="0.0"
     inkscape:pagecheckerboard="0"
     showgrid="true"
     inkscape:zoom="14.436328"
     inkscape:cx="12.953433"
     inkscape:cy="30.236221"
     inkscape:window-width="2528"
     inkscape:window-height="1377"
     inkscape:window-x="0"
     inkscape:window-y="0"
     inkscape:window-maximized="1"
     inkscape:current-layer="g8"><inkscape:grid
       type="xygrid"
       id="grid32" /></sodipodi:namedview><g
     id="g8"
     inkscape:groupmode="layer"
     inkscape:label="tenseur_cnot"
     transform="matrix(1.3333333,0,0,1.3333333,0,1.8451444e-6)"><g
       id="g10"><g
         id="g12"><path
           d="M 32.598,5.668 V 39.684"
           style="fill:none;stroke:#000000;stroke-width:0.850394;stroke-linecap:butt;stroke-linejoin:miter;stroke-miterlimit:4;stroke-dasharray:none;stroke-opacity:1"
           id="path14" /></g><g
         id="g16"><path
           d="M 9.922,5.668 V 39.684"
           style="fill:none;stroke:#000000;stroke-width:0.850394;stroke-linecap:butt;stroke-linejoin:miter;stroke-miterlimit:4;stroke-dasharray:none;stroke-opacity:1"
           id="path18" /></g><g
         id="g20"><path
           d="m 8.27,14.215 h 25.972 c 3.539,0 6.383,2.847 6.383,6.383 v 5.148 c 0,3.539 -2.844,6.383 -6.383,6.383 H 8.27 c -3.54,0 -6.383,-2.844 -6.383,-6.383 v -5.148 c 0,-3.536 2.843,-6.383 6.383,-6.383 z"
           style="fill:#ffebbb;fill-opacity:1;fill-rule:nonzero;stroke:#ffae00;stroke-width:0.850394;stroke-linecap:butt;stroke-linejoin:miter;stroke-miterlimit:4;stroke-dasharray:none;stroke-opacity:1"
           id="path22" /></g><path
         d="m 7.492,1.613 c 0,-0.203 -0.14,-0.359 -0.359,-0.359 -0.281,0 -0.547,0.266 -0.547,0.531 0,0.188 0.141,0.36 0.375,0.36 0.234,0 0.531,-0.235 0.531,-0.532 z m -0.75,3.75 C 6.852,5.082 6.852,5.051 6.961,4.785 7.039,4.582 7.086,4.441 7.086,4.254 7.086,3.816 6.773,3.441 6.273,3.441 c -0.937,0 -1.312,1.454 -1.312,1.532 0,0.109 0.094,0.109 0.109,0.109 0.11,0 0.11,-0.031 0.157,-0.187 C 5.508,3.957 5.898,3.66 6.242,3.66 c 0.078,0 0.25,0 0.25,0.313 0,0.218 -0.078,0.422 -0.109,0.531 C 6.305,4.754 5.852,5.91 5.695,6.348 5.586,6.598 5.461,6.926 5.461,7.145 c 0,0.468 0.344,0.812 0.812,0.812 0.938,0 1.313,-1.437 1.313,-1.531 0,-0.11 -0.094,-0.11 -0.125,-0.11 -0.094,0 -0.094,0.032 -0.141,0.188 -0.187,0.625 -0.515,1.234 -1.015,1.234 -0.172,0 -0.25,-0.093 -0.25,-0.328 0,-0.25 0.062,-0.39 0.297,-1 z"
         style="fill:#000000;fill-opacity:1;fill-rule:nonzero;stroke:none"
         id="path24" /><path
         d="m 7.586,35.984 c 0,-0.187 -0.141,-0.359 -0.375,-0.359 -0.234,0 -0.531,0.234 -0.531,0.531 0,0.203 0.14,0.36 0.375,0.36 0.265,0 0.531,-0.266 0.531,-0.532 z m -2,6.735 c -0.188,0.75 -0.672,1.328 -1.219,1.328 -0.062,0 -0.219,0 -0.39,-0.094 0.296,-0.062 0.437,-0.328 0.437,-0.531 0,-0.156 -0.109,-0.344 -0.375,-0.344 -0.25,0 -0.531,0.203 -0.531,0.563 0,0.406 0.39,0.625 0.875,0.625 0.703,0 1.625,-0.532 1.875,-1.516 l 0.906,-3.656 c 0.063,-0.188 0.063,-0.328 0.063,-0.36 0,-0.578 -0.422,-0.922 -0.922,-0.922 -1.016,0 -1.578,1.454 -1.578,1.532 0,0.109 0.093,0.109 0.109,0.109 0.094,0 0.109,-0.015 0.187,-0.203 0.25,-0.609 0.704,-1.219 1.25,-1.219 0.141,0 0.313,0.047 0.313,0.453 0,0.235 -0.016,0.344 -0.063,0.516 z"
         style="fill:#000000;fill-opacity:1;fill-rule:nonzero;stroke:none"
         id="path26" /><path
         d="m 37.121,1.363 c 0,0 0,-0.109 -0.125,-0.109 -0.234,0 -0.953,0.078 -1.219,0.109 -0.078,0 -0.187,0.016 -0.187,0.188 0,0.125 0.094,0.125 0.234,0.125 0.485,0 0.5,0.062 0.5,0.172 l -0.031,0.203 -1.438,5.734 c -0.046,0.141 -0.046,0.156 -0.046,0.219 0,0.234 0.203,0.281 0.296,0.281 0.125,0 0.266,-0.094 0.329,-0.203 0.046,-0.094 0.5,-1.937 0.562,-2.187 0.344,0.031 1.156,0.187 1.156,0.843 0,0.078 0,0.11 -0.031,0.219 -0.016,0.109 -0.031,0.234 -0.031,0.344 0,0.578 0.39,0.984 0.906,0.984 0.297,0 0.578,-0.156 0.797,-0.531 0.25,-0.438 0.359,-0.984 0.359,-1 0,-0.109 -0.093,-0.109 -0.125,-0.109 -0.093,0 -0.109,0.046 -0.14,0.187 -0.203,0.719 -0.422,1.234 -0.86,1.234 -0.203,0 -0.328,-0.109 -0.328,-0.468 0,-0.172 0.047,-0.407 0.078,-0.563 0.047,-0.172 0.047,-0.203 0.047,-0.312 0,-0.641 -0.625,-0.922 -1.484,-1.047 0.312,-0.172 0.64,-0.485 0.859,-0.735 0.485,-0.531 0.938,-0.953 1.422,-0.953 0.063,0 0.078,0 0.094,0.016 0.125,0.016 0.125,0.016 0.219,0.078 0.015,0 0.015,0.016 0.031,0.031 -0.469,0.032 -0.563,0.422 -0.563,0.547 0,0.156 0.11,0.344 0.375,0.344 0.266,0 0.547,-0.219 0.547,-0.609 0,-0.297 -0.234,-0.625 -0.672,-0.625 -0.281,0 -0.734,0.078 -1.453,0.875 -0.344,0.375 -0.734,0.781 -1.109,0.921 z"
         style="fill:#000000;fill-opacity:1;fill-rule:nonzero;stroke:none"
         id="path28" /><path
         d="m 36.949,37.344 c 0,0 0,-0.11 -0.14,-0.11 -0.219,0 -0.954,0.078 -1.219,0.11 -0.078,0 -0.188,0.015 -0.188,0.203 0,0.109 0.11,0.109 0.25,0.109 0.485,0 0.5,0.094 0.5,0.172 l -0.031,0.203 -1.266,4.985 c -0.031,0.109 -0.046,0.172 -0.046,0.328 0,0.578 0.437,0.922 0.906,0.922 0.328,0 0.578,-0.204 0.75,-0.563 0.172,-0.375 0.297,-0.953 0.297,-0.969 0,-0.109 -0.094,-0.109 -0.125,-0.109 -0.094,0 -0.11,0.047 -0.125,0.187 -0.172,0.641 -0.36,1.235 -0.766,1.235 -0.297,0 -0.297,-0.313 -0.297,-0.453 0,-0.25 0.016,-0.297 0.063,-0.485 z"
         style="fill:#000000;fill-opacity:1;fill-rule:nonzero;stroke:none"
         id="path30" /></g></g></svg>
